:SAMPLES-PER-SECOND 30
:FULLY-SPECIFIED
:DEGREES
473
root  -1.69119 38.8104 0.575235 -162.795 -77.5223 151.722
RightUpLeg  -13.3229 5.84645 -11.3572
RightLeg  60.6586 1.50121 2.4425
RightFoot  1.71938 -0.788839 6.98624
RightToes  4.6566e-010 0 -3.6325e-017
Spine  7.57596 -1.50334 -6.70802
Spine1  14.1735 -2.49553 -1.96142
HEad  -5.0442 0.773512 -6.12147
LeftShoulder1  -0.101155 3.77718 -30.8872
LeftArm  -3.1855 11.7595 -41.5886
LeftForeArm  22.304 -15.5723 -5.66475
LeftHand  -0.0247299 4.02986 0.100332
RightShoulder  -0.702619 -5.50854 28.375
RightArm  19.6165 1.0617 49.3307
RightForeArm  4.8956 16.5998 5.83342
RightHand  -0.417228 4.48003 -5.18776
LeftUpLeg  -1.80677 5.30558 -9.79595
LeftLeg  17.6627 5.47602 0.00568211
LeftFoot  -5.38805 -0.460873 9.46843
LeftToes  -4.59298e-010 2.08438e-011 -1.27151e-011
474
root  -2.67163 38.9533 0.519115 -161.99 -79.1279 150.88
RightUpLeg  -14.619 5.27869 -10.5117
RightLeg  53.4686 0.366891 0.135607
RightFoot  0.129726 -0.683063 6.80688
RightToes  4.6566e-010 0 -3.6325e-017
Spine  7.81079 -2.0773 -7.05394
Spine1  13.7824 -3.43503 -0.587515
HEad  -5.47635 -0.699362 -5.16186
LeftShoulder1  -0.0784328 3.7161 -30.7773
LeftArm  -0.132097 11.1539 -41.6266
LeftForeArm  18.7986 -18.6545 -4.91893
LeftHand  -0.047375 3.31067 1.76597
RightShoulder  -0.681748 -5.45979 28.171
RightArm  21.0085 0.59607 49.5125
RightForeArm  4.52528 18.6928 5.23558
RightHand  -0.45841 4.42362 -5.69983
LeftUpLeg  0.651811 5.28182 -9.33796
LeftLeg  16.4137 4.10982 -0.545417
LeftFoot  -6.29556 -0.395682 9.82184
LeftToes  -4.59298e-010 2.08438e-011 -1.27151e-011
475
root  -3.64455 39.0196 0.457323 -159.513 -80.1223 148.445
RightUpLeg  -15.2574 4.61632 -10.2016
RightLeg  44.4248 -0.47646 -0.795309
RightFoot  -0.686934 -0.656676 6.9813
RightToes  4.6566e-010 0 -3.6325e-017
Spine  7.98069 -2.34381 -7.60478
Spine1  13.2107 -3.94039 0.517847
HEad  -6.23316 -2.35729 -4.39405
LeftShoulder1  -0.00860619 3.52763 -30.4847
LeftArm  1.29345 10.573 -41.6506
LeftForeArm  17.2613 -21.4795 -4.23549
LeftHand  -0.0671385 2.58891 2.28091
RightShoulder  -0.690579 -5.48139 28.2417
RightArm  21.4363 0.659754 49.4915
RightForeArm  4.56828 19.2455 5.09969
RightHand  -0.419565 4.58146 -5.16807
LeftUpLeg  2.8006 5.30351 -9.32345
LeftLeg  15.4264 3.07737 -0.875795
LeftFoot  -7.28539 -0.316109 10.1336
LeftToes  -4.59298e-010 2.08438e-011 -1.27151e-011
476
root  -4.58355 39.0449 0.3986 -155.138 -80.8352 144.449
RightUpLeg  -15.62 3.37208 -9.95829
RightLeg  34.3481 -1.2653 -1.17226
RightFoot  -0.331768 -0.688794 7.11407
RightToes  4.6566e-010 0 -3.6325e-017
Spine  7.90144 -2.49805 -8.00077
Spine1  12.5309 -4.17044 1.39086
HEad  -7.55375 -4.28124 -3.03723
LeftShoulder1  0.0422595 3.38779 -30.4036
LeftArm  1.64225 9.71639 -41.2605
LeftForeArm  16.8952 -24.1535 -4.23415
LeftHand  -0.0811699 2.56683 2.87013
RightShoulder  -0.693781 -5.49515 28.1624
RightArm  21.5853 0.846837 49.5614
RightForeArm  3.79333 19.1549 5.1784
RightHand  -0.468797 4.88657 -5.5867
LeftUpLeg  4.36768 5.21731 -9.63504
LeftLeg  14.7013 2.35069 -1.02949
LeftFoot  -8.36406 -0.212613 10.0944
LeftToes  -4.59298e-010 2.08438e-011 -1.27151e-011
477
root  -5.57812 39.0302 0.319277 -150.759 -81.2115 140.3
RightUpLeg  -15.1915 0.717392 -9.546
RightLeg  24.2961 -1.21049 -0.856919
RightFoot  -0.152245 -0.707607 7.20587
RightToes  4.6566e-010 0 -3.6325e-017
Spine  7.60631 -2.64346 -8.04004
Spine1  11.9949 -4.19187 1.56133
HEad  -8.34297 -6.00977 -1.94277
LeftShoulder1  0.0690722 3.31174 -29.8066
LeftArm  0.153168 9.16669 -41.233
LeftForeArm  18.2891 -26.2944 -4.66808
LeftHand  -0.0802745 2.18697 2.57706
RightShoulder  -0.70709 -5.5209 28.3848
RightArm  21.1041 1.21638 49.6524
RightForeArm  4.09 18.0139 5.49201
RightHand  -0.509731 4.91632 -6.0383
LeftUpLeg  6.13609 5.16073 -10.0405
LeftLeg  14.0284 1.83223 -1.07369
LeftFoot  -9.62326 -0.0919561 9.97421
LeftToes  -4.59298e-010 2.08438e-011 -1.27151e-011
478
root  -6.62451 38.992 0.280649 -148.913 -80.5512 138.268
RightUpLeg  -14.2203 -4.6116 -8.57997
RightLeg  15.4121 0.462116 -0.107153
RightFoot  0.535557 -0.748694 7.21649
RightToes  4.6566e-010 0 -3.6325e-017
Spine  7.17602 -2.47213 -7.48764
Spine1  12.0898 -3.69813 1.0534
HEad  -9.25543 -7.64496 -1.44793
LeftShoulder1  0.0492696 3.36692 -29.8565
LeftArm  -0.507018 8.09327 -40.7263
LeftForeArm  18.57 -27.711 -4.97196
LeftHand  -0.0736282 3.24639 3.05339
RightShoulder  -0.670488 -5.42078 28.2841
RightArm  20.0719 1.61826 49.8535
RightForeArm  6.10537 16.5397 5.86085
RightHand  -0.427473 4.97304 -5.1068
LeftUpLeg  8.7415 5.11814 -10.8589
LeftLeg  12.6191 2.51124 -1.01451
LeftFoot  -10.6477 0.00531418 9.69058
LeftToes  -4.59298e-010 2.08438e-011 -1.27151e-011
479
root  -7.69325 38.9172 0.214483 -147.702 -80.1936 136.976
RightUpLeg  -12.9099 -11.9847 -7.04827
RightLeg  8.17956 -0.869029 1.04572
RightFoot  2.19036 -0.919404 7.84003
RightToes  4.6566e-010 0 -3.6325e-017
Spine  7.01129 -2.3543 -6.93629
Spine1  11.5352 -3.40157 0.939599
HEad  -9.89056 -9.22559 -0.962616
LeftShoulder1  0.0529711 3.35627 -29.7628
LeftArm  -1.05972 7.93937 -40.3278
LeftForeArm  18.6449 -28.8574 -5.23036
LeftHand  -0.119275 2.20347 4.03712
RightShoulder  -0.663264 -5.3975 28.326
RightArm  19.9215 1.70379 49.4864
RightForeArm  6.99406 15.2537 6.3466
RightHand  -0.427197 3.68004 -5.71149
LeftUpLeg  11.0526 5.0823 -11.3981
LeftLeg  11.6679 2.81938 -0.896205
LeftFoot  -11.956 0.122025 9.32058
LeftToes  -4.59298e-010 2.08438e-011 -1.27151e-011
480
root  -8.8288 38.8212 0.116283 -148.051 -80.2163 137.398
RightUpLeg  -10.5176 -13.1819 -6.86853
RightLeg  2.11844 -12.7364 4.43563
RightFoot  3.87236 -0.989383 7.63459
RightToes  4.6566e-010 0 -3.6325e-017
Spine  5.83832 -2.3982 -5.99462
Spine1  12.0758 -3.30713 0.962375
HEad  -10.7325 -10.6813 -0.541817
LeftShoulder1  0.0968143 3.23412 -29.7688
LeftArm  -1.25378 7.72652 -40.1697
LeftForeArm  18.4135 -29.0291 -5.28373
LeftHand  -0.11315 2.51923 4.11987
RightShoulder  -0.696326 -5.48274 28.5085
RightArm  19.0846 2.10012 48.8999
RightForeArm  8.24907 13.8431 6.77926
RightHand  -0.397617 3.94136 -5.21074
LeftUpLeg  13.1047 5.23183 -11.3256
LeftLeg  11.3181 2.67809 -0.836655
LeftFoot  -13.5602 0.255144 8.93868
LeftToes  -4.59298e-010 2.08438e-011 -1.27151e-011
